<svg width="24" height="24" viewBox="0 0 24 24" fill="none" xmlns="http://www.w3.org/2000/svg">
<path fill-rule="evenodd" clip-rule="evenodd" d="M2 2.00012C2 1.58591 2.33579 1.25012 2.75 1.25012H4.75C6.26878 1.25012 7.5 2.48134 7.5 4.00012H18C19.9528 4.00012 21.5787 5.39948 21.9298 7.25012H6V6.00012V4.00012C6 3.30977 5.44036 2.75012 4.75 2.75012H2.75C2.33579 2.75012 2 2.41434 2 2.00012ZM9.5 22.0001C10.3284 22.0001 11 21.3285 11 20.5001C11 19.6717 10.3284 19.0001 9.5 19.0001C8.67157 19.0001 8 19.6717 8 20.5001C8 21.3285 8.67157 22.0001 9.5 22.0001ZM18.5 22.0001C19.3284 22.0001 20 21.3285 20 20.5001C20 19.6717 19.3284 19.0001 18.5 19.0001C17.6716 19.0001 17 19.6717 17 20.5001C17 21.3285 17.6716 22.0001 18.5 22.0001ZM6 8.75012H22V13.0001C22 15.2093 20.2091 17.0001 18 17.0001H10C7.79086 17.0001 6 15.2093 6 13.0001V8.75012Z" fill="#1849A9"/>
</svg>
