<svg width="18" height="18" viewBox="0 0 18 18" fill="none" xmlns="http://www.w3.org/2000/svg">
<path fill-rule="evenodd" clip-rule="evenodd" d="M7.125 2.29675H4.5C2.84315 2.29675 1.5 3.6399 1.5 5.29675V11.2968C1.5 12.2759 1.96913 13.1456 2.69489 13.6931C2.96783 12.534 4.00788 11.6718 5.25 11.6718C6.69975 11.6718 7.875 12.847 7.875 14.2968H10.125V5.29675C10.125 3.6399 8.78185 2.29675 7.125 2.29675ZM6 5.48425C5.68934 5.48425 5.4375 5.73609 5.4375 6.04675C5.4375 6.35741 5.68934 6.60925 6 6.60925H7.5C7.81066 6.60925 8.0625 6.35741 8.0625 6.04675C8.0625 5.73609 7.81066 5.48425 7.5 5.48425H6ZM3.9375 9.04675C3.9375 8.73609 4.18934 8.48425 4.5 8.48425H7.5C7.81066 8.48425 8.0625 8.73609 8.0625 9.04675C8.0625 9.35741 7.81066 9.60925 7.5 9.60925H4.5C4.18934 9.60925 3.9375 9.35741 3.9375 9.04675ZM16.0842 13.8333C15.8653 12.6046 14.7916 11.6718 13.5 11.6718C12.5451 11.6718 11.7093 12.1816 11.25 12.9439V5.29675H12.9068C13.2879 5.29675 13.6547 5.4418 13.9327 5.70245L16.0259 7.66479C16.3284 7.94837 16.5 8.34449 16.5 8.7591V12.7968C16.5 13.1988 16.3418 13.564 16.0842 13.8333ZM6.75 14.2968C6.75 15.1252 6.07843 15.7968 5.25 15.7968C4.42157 15.7968 3.75 15.1252 3.75 14.2968C3.75 14.2653 3.75097 14.234 3.75288 14.203C3.80129 13.4182 4.45307 12.7968 5.25 12.7968C6.07843 12.7968 6.75 13.4683 6.75 14.2968ZM15 14.2968C15 15.1252 14.3284 15.7968 13.5 15.7968C12.6716 15.7968 12 15.1252 12 14.2968C12 13.4683 12.6716 12.7968 13.5 12.7968C14.3284 12.7968 15 13.4683 15 14.2968Z" fill="#0C111D"/>
</svg>
