<svg width="18" height="18" viewBox="0 0 18 18" fill="none" xmlns="http://www.w3.org/2000/svg">
<g clip-path="url(#clip0_214_5551)">
<path fill-rule="evenodd" clip-rule="evenodd" d="M13.9219 3.75012H15C15.8284 3.75012 16.5 4.42169 16.5 5.25012V6.00012C16.5 6.82855 15.8284 7.50012 15 7.50012H3C2.17157 7.50012 1.5 6.82855 1.5 6.00012V5.25012C1.5 4.42169 2.17157 3.75012 3 3.75012H4.0781C3.98732 3.51767 3.9375 3.26472 3.9375 3.00012C3.9375 1.86103 4.86091 0.937622 6 0.937622C7.2596 0.937622 8.36652 1.59134 9 2.57801C9.63347 1.59134 10.7404 0.937622 12 0.937622C13.1391 0.937622 14.0625 1.86103 14.0625 3.00012C14.0625 3.26472 14.0127 3.51767 13.9219 3.75012ZM5.43741 3.75012H8.31994C8.0036 2.7709 7.08452 2.06262 6 2.06262C5.48223 2.06262 5.0625 2.48236 5.0625 3.00012C5.0625 3.3068 5.20975 3.57908 5.43741 3.75012ZM12.5626 3.75012C12.7902 3.57908 12.9375 3.3068 12.9375 3.00012C12.9375 2.48236 12.5178 2.06262 12 2.06262C10.9155 2.06262 9.9964 2.7709 9.68006 3.75012H12.5626ZM15 8.62512H3V15.0001C3 15.8285 3.67157 16.5001 4.5 16.5001H13.5C14.3284 16.5001 15 15.8285 15 15.0001V8.62512Z" fill="#0C111D"/>
</g>
<defs>
<clipPath id="clip0_214_5551">
<rect width="18" height="18" fill="white"/>
</clipPath>
</defs>
</svg>
