<svg width="25" height="24" viewBox="0 0 25 24" fill="none" xmlns="http://www.w3.org/2000/svg">
<path d="M20.7499 18H14.7499M20.7499 18C21.8544 18 22.7499 18.8954 22.7499 20C22.7499 21.1046 21.8544 22 20.7499 22H14.7499C13.6453 22 12.7499 21.1046 12.7499 20C12.7499 18.8954 13.6453 18 14.7499 18M20.7499 18C21.8544 18 22.7499 17.1046 22.7499 16C22.7499 14.8954 21.8544 14 20.7499 14H20.0832M14.7499 18C13.6453 18 12.7499 17.1046 12.7499 16C12.7499 14.8954 13.6453 14 14.7499 14H20.0832M14.4253 22H11.0744C6.97908 22 4.08726 17.9878 5.38232 14.1026L6.38233 11.1026C7.19901 8.65258 9.49184 7 12.0744 7H13.4253C16.0079 7 18.3007 8.65258 19.1174 11.1026L20.0832 14" stroke="#1849A9" stroke-width="2" stroke-linejoin="round"/>
<path d="M14.8359 7L10.6641 7L9.26303 5.39296C7.88959 3.81763 9.49185 1.46298 11.4971 2.10985L12.4248 2.40914C12.6361 2.47728 12.8639 2.47728 13.0752 2.40914L14.0029 2.10985C16.0082 1.46298 17.6104 3.81763 16.237 5.39296L14.8359 7Z" stroke="#1849A9" stroke-width="2" stroke-linejoin="round"/>
</svg>
