<svg width="24" height="24" viewBox="0 0 24 24" fill="none" xmlns="http://www.w3.org/2000/svg">
<path d="M12 24C18.6274 24 24 18.6274 24 12C24 5.37258 18.6274 0 12 0C5.37258 0 0 5.37258 0 12C0 18.6274 5.37258 24 12 24Z" fill="#FDDCAB"/>
<path d="M12 20.559C16.7271 20.559 20.5593 16.7269 20.5593 11.9997C20.5593 7.27256 16.7271 3.44043 12 3.44043C7.2728 3.44043 3.44067 7.27256 3.44067 11.9997C3.44067 16.7269 7.2728 20.559 12 20.559Z" fill="#9C2A10"/>
<path d="M12.6187 5.46118L13.8075 9.11981C13.85 9.25047 13.9327 9.36434 14.0438 9.44509C14.155 9.52584 14.2888 9.56934 14.4262 9.56934H18.0406C18.7441 9.56934 19.0365 10.4695 18.4673 10.8829L15.5432 13.0073C15.4321 13.088 15.3493 13.2019 15.3069 13.3326C15.2644 13.4632 15.2644 13.604 15.3069 13.7346L16.4957 17.3933C16.6905 17.9927 16.0045 18.4911 15.4945 18.1206L12.4267 15.8918C12.3027 15.8016 12.1533 15.753 11.9999 15.753C11.8466 15.753 11.6971 15.8016 11.5731 15.8918L8.50532 18.1206C7.99548 18.4911 7.30938 17.9927 7.50413 17.3933L8.69289 13.7346C8.73534 13.604 8.73535 13.4632 8.6929 13.3326C8.65045 13.2019 8.56774 13.088 8.4566 13.0073L5.53251 10.8829C4.96346 10.4694 5.25592 9.56934 5.95927 9.56934H9.5736C9.71098 9.56934 9.84484 9.52584 9.95599 9.44509C10.0671 9.36434 10.1499 9.25047 10.1923 9.11981L11.3811 5.46118C11.576 4.8619 12.424 4.8619 12.6187 5.46118Z" fill="#FFEAD5"/>
<path d="M18.0767 9.57031C18.0898 9.79708 17.9989 10.032 17.7772 10.1929L14.8531 12.3173C14.7419 12.3981 14.6592 12.5119 14.6168 12.6426C14.5743 12.7733 14.5743 12.914 14.6168 13.0447L15.8056 16.7033C16.0003 17.3027 15.3142 17.8011 14.8044 17.4307L11.7366 15.2018C11.6126 15.1116 11.4632 15.0631 11.3098 15.0631C11.1564 15.0631 11.007 15.1116 10.883 15.2018L7.81521 17.4307C7.70548 17.5105 7.58747 17.5499 7.47181 17.5567C7.43496 18.0776 8.04253 18.4569 8.50531 18.1208L11.5731 15.8919C11.6971 15.8017 11.8465 15.7532 11.9999 15.7532C12.1533 15.7532 12.3027 15.8017 12.4267 15.8919L15.4945 18.1208C16.0043 18.4912 16.6904 17.9928 16.4957 17.3934L15.3069 13.7348C15.2645 13.6041 15.2645 13.4634 15.3069 13.3327C15.3494 13.2021 15.4321 13.0882 15.5432 13.0074L18.4673 10.883C19.0266 10.4768 18.7538 9.60054 18.0767 9.57031Z" fill="#EC4A0A"/>
</svg>
