<svg width="24" height="24" viewBox="0 0 24 24" fill="none" xmlns="http://www.w3.org/2000/svg">
<g clip-path="url(#clip0_44_44901)">
<path d="M24.0001 12C24.0001 15.1661 22.774 18.0457 20.7707 20.1901C18.5806 22.5345 15.4615 23.7908 12.0001 23.7908C5.37272 23.7908 0.229736 18.6274 0.229736 12C0.229736 8.53884 1.46545 5.41992 3.80958 3.22978C5.95402 1.2263 8.83388 0 12.0001 0C18.6276 0 24.0001 5.37258 24.0001 12Z" fill="#FEC84B"/>
<path d="M12.0001 21.6771C17.3448 21.6771 21.6775 17.3444 21.6775 11.9997C21.6775 6.655 17.3448 2.32227 12.0001 2.32227C6.65537 2.32227 2.32263 6.655 2.32263 11.9997C2.32263 17.3444 6.65537 21.6771 12.0001 21.6771Z" fill="#FEF0C7"/>
<path d="M20.1289 12.0001C20.1289 14.071 19.3545 15.9611 18.0795 17.3965C16.5904 19.0729 14.4185 19.9171 11.9999 19.9171C7.51038 19.9171 4.13904 16.4897 4.13904 12.0002C4.13904 9.58305 4.92583 7.41236 6.6004 5.92333C8.03618 4.64659 9.92749 3.87109 11.9999 3.87109C16.4895 3.87109 20.1289 7.51056 20.1289 12.0001Z" fill="#FEDF89"/>
<path d="M13.9355 12.3869L12.3613 8.29403C12.234 7.96319 11.7659 7.96319 11.6387 8.29403L10.0645 12.3869L8.02728 10.859L7.77368 11.209L9.37718 15.9615L15.3387 15.4837L16.6744 11.209C16.7865 10.8504 16.3733 10.5585 16.0727 10.7839L13.9355 12.3869Z" fill="#F79009"/>
<path d="M12.5806 23.419C5.95322 23.419 0.580641 18.0464 0.580641 11.419C0.580641 8.25304 1.80623 5.37384 3.80948 3.22949C1.46503 5.41963 0 8.53823 0 11.9997C0 18.6271 5.37258 23.9997 12 23.9997C15.4614 23.9997 18.5804 22.5343 20.7705 20.1898C18.6262 22.193 15.7466 23.419 12.5806 23.419Z" fill="#F79009"/>
<path d="M12.675 19.4534C8.18543 19.4534 4.54596 15.8139 4.54596 11.3244C4.54596 9.25159 5.32315 7.35873 6.60026 5.92285C4.92612 7.41179 3.87073 9.58295 3.87073 11.9996C3.87073 16.4892 7.51024 20.1286 11.9997 20.1286C14.4165 20.1286 16.5904 19.0701 18.0793 17.396C16.6435 18.6731 14.7478 19.4534 12.675 19.4534Z" fill="#FEC84B"/>
<path d="M9.13294 14.3975L8.02725 10.8593L7.92717 10.7843C7.62656 10.5588 7.21336 10.8507 7.32544 11.2094L8.73342 15.7149C8.78264 15.8724 8.88088 16.0101 9.01381 16.1078C9.14674 16.2055 9.30742 16.2582 9.47241 16.2582H14.5276C14.8662 16.2582 15.1656 16.0381 15.2666 15.7149L15.3387 15.484H10.6109C10.2809 15.484 9.95957 15.3786 9.6937 15.1832C9.42784 14.9877 9.23136 14.7124 9.13294 14.3975Z" fill="#F79009"/>
</g>
<defs>
<clipPath id="clip0_44_44901">
<rect width="24" height="24" fill="white"/>
</clipPath>
</defs>
</svg>
