<svg width="25" height="24" viewBox="0 0 25 24" fill="none" xmlns="http://www.w3.org/2000/svg">
<path d="M4.25 11H20.25M4.25 11C3.14543 11 2.25 10.1046 2.25 9V8C2.25 6.89543 3.14543 6 4.25 6H20.25C21.3546 6 22.25 6.89543 22.25 8V9C22.25 10.1046 21.3546 11 20.25 11M4.25 11L4.25 20C4.25 21.1046 5.14543 22 6.25 22H18.25C19.3546 22 20.25 21.1046 20.25 20V11M12.25 6H16.25C17.3546 6 18.25 5.10457 18.25 4C18.25 2.89543 17.3546 2 16.25 2C14.0409 2 12.25 3.79086 12.25 6ZM12.25 6H8.25C7.14543 6 6.25 5.10457 6.25 4C6.25 2.89543 7.14543 2 8.25 2C10.4591 2 12.25 3.79086 12.25 6ZM12.25 6V22" stroke="#344054" stroke-width="2" stroke-linecap="round"/>
</svg>
