<svg width="24" height="24" viewBox="0 0 24 24" fill="none" xmlns="http://www.w3.org/2000/svg">
<path d="M2 17.0001C2 19.2093 3.79086 21.0001 6 21.0001H18C20.2091 21.0001 22 19.2093 22 17.0001V16.0001C22 15.4478 21.54 15.0164 21.0181 14.8358C19.8435 14.4291 19 13.3131 19 12.0001C19 10.6871 19.8435 9.57117 21.0181 9.16449C21.54 8.98381 22 8.55241 22 8.00012V7.00012C22 4.79098 20.2091 3.00012 18 3.00012H6C3.79086 3.00012 2 4.79098 2 7.00012V8.00012C2 8.55241 2.46 8.98381 2.98189 9.16449C4.15653 9.57117 5 10.6871 5 12.0001C5 13.3131 4.15653 14.4291 2.98189 14.8358C2.46 15.0164 2 15.4478 2 16.0001V17.0001Z" stroke="#101828" stroke-width="2" stroke-linecap="round" stroke-linejoin="round"/>
<path d="M10 9.00012C10 9.55241 9.55228 10.0001 9 10.0001C8.44772 10.0001 8 9.55241 8 9.00012C8 8.44784 8.44772 8.00012 9 8.00012C9.55228 8.00012 10 8.44784 10 9.00012Z" fill="#101828"/>
<path d="M16 15.0001C16 15.5524 15.5523 16.0001 15 16.0001C14.4477 16.0001 14 15.5524 14 15.0001C14 14.4478 14.4477 14.0001 15 14.0001C15.5523 14.0001 16 14.4478 16 15.0001Z" fill="#101828"/>
<path d="M15 9.00012L9 15.0001" stroke="#101828" stroke-width="2" stroke-linecap="round"/>
</svg>
