<svg width="24" height="24" viewBox="0 0 24 24" fill="none" xmlns="http://www.w3.org/2000/svg">
<path d="M4 11.0001H20M4 11.0001C2.89543 11.0001 2 10.1047 2 9.00012V8.00012C2 6.89555 2.89543 6.00012 4 6.00012H20C21.1046 6.00012 22 6.89555 22 8.00012V9.00012C22 10.1047 21.1046 11.0001 20 11.0001M4 11.0001L4 20.0001C4 21.1047 4.89543 22.0001 6 22.0001H18C19.1046 22.0001 20 21.1047 20 20.0001V11.0001M12 6.00012H16C17.1046 6.00012 18 5.10469 18 4.00012C18 2.89555 17.1046 2.00012 16 2.00012C13.7909 2.00012 12 3.79098 12 6.00012ZM12 6.00012H8C6.89543 6.00012 6 5.10469 6 4.00012C6 2.89555 6.89543 2.00012 8 2.00012C10.2091 2.00012 12 3.79098 12 6.00012ZM12 6.00012V22.0001" stroke="#101828" stroke-width="2" stroke-linecap="round"/>
</svg>
