<svg width="18" height="18" viewBox="0 0 18 18" fill="none" xmlns="http://www.w3.org/2000/svg">
<path fill-rule="evenodd" clip-rule="evenodd" d="M9 4.14329L9.57378 3.52684C11.1583 1.82455 13.7272 1.82455 15.3116 3.52684C16.8961 5.22912 16.8961 7.98908 15.3116 9.69136L10.1476 15.2394C9.51379 15.9204 8.48621 15.9204 7.85243 15.2394L2.68835 9.69136C1.10388 7.98908 1.10388 5.22912 2.68835 3.52684C4.27282 1.82455 6.84175 1.82455 8.42621 3.52684L9 4.14329ZM12.75 3.93762C12.4393 3.93762 12.1875 4.18946 12.1875 4.50012C12.1875 4.81078 12.4393 5.06262 12.75 5.06262C13.2678 5.06262 13.6875 5.48235 13.6875 6.00012C13.6875 6.31078 13.9393 6.56262 14.25 6.56262C14.5607 6.56262 14.8125 6.31078 14.8125 6.00012C14.8125 4.86103 13.8891 3.93762 12.75 3.93762Z" fill="#0C111D"/>
</svg>
