<svg width="18" height="18" viewBox="0 0 18 18" fill="none" xmlns="http://www.w3.org/2000/svg">
<path d="M7.52461 2.45368C8.12812 1.18227 9.87187 1.18227 10.4754 2.45368L11.5184 4.65101C11.7581 5.15588 12.2213 5.50582 12.7572 5.58679L15.0895 5.93914C16.439 6.14302 16.9779 7.86728 16.0013 8.85693L14.3137 10.5673C13.9259 10.9603 13.749 11.5265 13.8405 12.0814L14.2389 14.4965C14.4694 15.8939 13.0587 16.9596 11.8517 16.2998L9.76562 15.1596C9.28631 14.8976 8.71369 14.8976 8.23438 15.1596L6.14832 16.2998C4.94129 16.9596 3.53057 15.8939 3.76109 14.4965L4.15949 12.0814C4.25103 11.5265 4.07408 10.9603 3.68631 10.5673L1.99866 8.85694C1.02215 7.86728 1.561 6.14302 2.9105 5.93914L5.24278 5.58679C5.77867 5.50582 6.24192 5.15588 6.48158 4.65101L7.52461 2.45368Z" fill="#0C111D"/>
</svg>
