<svg width="18" height="18" viewBox="0 0 18 18" fill="none" xmlns="http://www.w3.org/2000/svg">
<path fill-rule="evenodd" clip-rule="evenodd" d="M4.5 15.7501C2.84315 15.7501 1.5 14.407 1.5 12.7501V12.0001C1.5 11.5859 1.845 11.2624 2.23642 11.1268C3.1174 10.8218 3.75 9.98485 3.75 9.00012C3.75 8.01539 3.1174 7.17841 2.23642 6.8734C1.845 6.73789 1.5 6.41434 1.5 6.00012V5.25012C1.5 3.59327 2.84315 2.25012 4.5 2.25012H13.5C15.1569 2.25012 16.5 3.59327 16.5 5.25012V6.00012C16.5 6.41434 16.155 6.73789 15.7636 6.8734C14.8826 7.17841 14.25 8.01539 14.25 9.00012C14.25 9.98485 14.8826 10.8218 15.7636 11.1268C16.155 11.2624 16.5 11.5859 16.5 12.0001V12.7501C16.5 14.407 15.1569 15.7501 13.5 15.7501H4.5ZM6.75 7.50012C7.16421 7.50012 7.5 7.16434 7.5 6.75012C7.5 6.33591 7.16421 6.00012 6.75 6.00012C6.33579 6.00012 6 6.33591 6 6.75012C6 7.16434 6.33579 7.50012 6.75 7.50012ZM12 11.2501C12 11.6643 11.6642 12.0001 11.25 12.0001C10.8358 12.0001 10.5 11.6643 10.5 11.2501C10.5 10.8359 10.8358 10.5001 11.25 10.5001C11.6642 10.5001 12 10.8359 12 11.2501ZM11.6477 7.14787C11.8674 6.9282 11.8674 6.57204 11.6477 6.35237C11.4281 6.1327 11.0719 6.1327 10.8523 6.35237L6.35225 10.8524C6.13258 11.072 6.13258 11.4282 6.35225 11.6479C6.57192 11.8675 6.92808 11.8675 7.14775 11.6479L11.6477 7.14787Z" fill="#0C111D"/>
</svg>
